<svg width="106" height="58" viewBox="0 0 106 58" fill="none" xmlns="http://www.w3.org/2000/svg">
<path d="M4.92297 44.0555V5.23906H7.75104V16.5639H27.1023V19.1305H7.75104V41.4891H27.1023V44.0292L4.92297 44.0555ZM67.0096 44.0292H64.1816V19.9772C64.1816 18.1603 63.8845 16.4845 63.2908 14.9498C62.7152 13.4152 61.8856 12.0834 60.8034 10.9544C59.7212 9.82542 58.4119 8.93463 56.8755 8.28194C55.3568 7.61164 53.6633 7.25001 51.7955 7.19709V31.0903H48.9674V7.19709C47.1692 7.26766 45.5109 7.6381 43.9921 8.3084C42.4734 8.9787 41.1641 9.87834 40.0643 11.0073C38.9645 12.1363 38.1091 13.4681 37.4981 15.0027C36.8871 16.5374 36.5816 18.1956 36.5816 19.9772V22.2527H33.7273V19.9772C33.7797 17.6487 34.1987 15.5407 34.9842 13.6533C35.7698 11.7482 36.8696 10.1253 38.2836 8.78468C39.7151 7.42642 41.4434 6.38564 43.4684 5.66242C45.4933 4.92154 47.7889 4.5511 50.3555 4.5511C52.9389 4.5511 55.252 4.90389 57.2945 5.6095C59.3546 6.31511 61.1 7.33819 62.5317 8.67884C63.9633 10.0018 65.0631 11.6159 65.8311 13.521C66.5991 15.4261 66.9921 17.5782 67.0096 19.9772V44.0292ZM103.041 40.51H79.1858V44.0555H76.3578V40.51H72.7965V37.9699H76.3578V17.3577C76.3925 15.4349 76.7679 13.6974 77.484 12.1451C78.1996 10.5928 79.151 9.26976 80.338 8.1761C81.5425 7.06479 82.939 6.20927 84.5277 5.6095C86.1165 5.00973 87.8007 4.70986 89.5814 4.70986C91.4496 4.70986 93.1778 5.02738 94.7666 5.66242C96.3549 6.29745 97.7341 7.17943 98.9035 8.3084C100.073 9.41971 100.981 10.7515 101.627 12.3038C102.29 13.8562 102.622 15.5407 102.622 17.3577C102.622 19.351 102.282 21.1238 101.601 22.6761C100.92 24.2284 99.9861 25.5514 98.7988 26.6451C97.6294 27.7211 96.2501 28.5414 94.6618 29.1058C93.0731 29.6703 91.3796 29.9526 89.5814 29.9526C88.7434 29.9526 87.8447 29.882 86.8844 29.7409C85.9418 29.5821 85.0079 29.3175 84.0828 28.9471C83.1573 28.559 82.2669 28.0475 81.4114 27.4124C80.5563 26.7774 79.8143 25.9659 79.1858 24.9781V37.9699H103.041V40.51ZM99.7678 17.3577C99.7678 15.8407 99.4972 14.4559 98.9563 13.2035C98.4326 11.9511 97.7078 10.8838 96.7827 10.0018C95.8747 9.1022 94.8013 8.41424 93.5616 7.93796C92.3223 7.44403 90.9958 7.19709 89.5814 7.19709C88.0802 7.19709 86.6925 7.45288 85.418 7.96442C84.1611 8.47597 83.0701 9.19038 82.1446 10.1077C81.2195 11.0073 80.4951 12.0834 79.9714 13.3358C79.4477 14.5706 79.1858 15.9112 79.1858 17.3577C79.1858 18.8923 79.4653 20.2859 80.0238 21.5383C80.5823 22.7731 81.3331 23.8315 82.2757 24.7135C83.2184 25.5779 84.3182 26.2482 85.5751 26.7245C86.8321 27.2007 88.1677 27.4389 89.5814 27.4389C91.083 27.4389 92.4534 27.1919 93.6927 26.698C94.9497 26.1865 96.0235 25.4808 96.9134 24.5812C97.8213 23.6816 98.5197 22.6232 99.0082 21.406C99.5148 20.1712 99.7678 18.8218 99.7678 17.3577Z" fill="#04243D"/>
<path d="M103.067 46.9927H5.44666V47.8394H103.067V46.9927Z" fill="#0B4775"/>
<path d="M10.6055 55.0395V50.4909H10.9369V51.8177H13.2046V52.1187H10.9369V54.7389H13.2046V55.0365L10.6055 55.0395ZM14.3983 52.9032C14.3472 52.7876 14.3073 52.6572 14.2786 52.5124C14.252 52.3655 14.2388 52.222 14.2388 52.0815C14.2388 52.0548 14.2418 52.0103 14.2479 51.9481C14.2541 51.8842 14.2653 51.8105 14.2817 51.728C14.3001 51.6433 14.3246 51.5523 14.3554 51.4553C14.3881 51.3558 14.4321 51.2576 14.4873 51.1607C14.5426 51.0612 14.61 50.9663 14.6898 50.8753C14.7696 50.7843 14.8657 50.7038 14.9783 50.6336C15.0928 50.5633 15.2248 50.5074 15.3741 50.4659C15.5235 50.4227 15.6943 50.4007 15.8866 50.4007C16.0953 50.4007 16.2784 50.4257 16.4359 50.4752C16.5955 50.5227 16.7336 50.5857 16.8502 50.6645C16.9688 50.7428 17.068 50.833 17.1478 50.9342C17.2276 51.0332 17.2941 51.1357 17.3473 51.2411C17.47 51.4892 17.5396 51.7694 17.5559 52.0815C17.5559 52.2779 17.5345 52.4693 17.4915 52.6551C17.4506 52.841 17.3933 53.0209 17.3197 53.1945C17.246 53.3663 17.1601 53.5293 17.0619 53.6847C16.9658 53.8397 16.8624 53.9832 16.752 54.1157C16.6435 54.2457 16.531 54.3638 16.4144 54.4692C16.2978 54.5746 16.1832 54.6635 16.0707 54.7359H17.5713V55.0365H14.2418V54.3138H14.5732V54.7232C14.7512 54.7232 14.9149 54.719 15.0642 54.7109C15.2156 54.7008 15.3588 54.6766 15.4938 54.6394C15.6288 54.6025 15.7577 54.5475 15.8805 54.4751C16.0032 54.401 16.126 54.2994 16.2487 54.1716C16.2487 54.161 16.2487 54.1508 16.2487 54.1402C16.2507 54.128 16.2518 54.1165 16.2518 54.1064C16.2518 53.8706 16.218 53.6741 16.1505 53.5171C16.083 53.3579 15.993 53.2309 15.8805 53.1356C15.768 53.0408 15.638 52.9735 15.4907 52.9341C15.3435 52.8947 15.19 52.8752 15.0304 52.8752C14.9384 52.8752 14.8443 52.8816 14.7481 52.8939C14.654 52.904 14.5589 52.9189 14.4627 52.9375L14.3983 52.9032ZM17.2245 52.0815C17.2245 52.0463 17.2194 51.9883 17.2092 51.9079C17.201 51.8253 17.1816 51.733 17.1509 51.6318C17.1202 51.5307 17.0752 51.4261 17.0159 51.3186C16.9565 51.211 16.8767 51.1128 16.7765 51.0239C16.6783 50.935 16.5555 50.863 16.4083 50.8071C16.263 50.7491 16.0881 50.7204 15.8835 50.7204C15.683 50.7204 15.5122 50.7491 15.3711 50.8071C15.2299 50.863 15.1102 50.935 15.0121 51.0239C14.9159 51.1111 14.8392 51.2081 14.7819 51.3156C14.7246 51.421 14.6806 51.5243 14.6499 51.6255C14.6193 51.7271 14.5988 51.819 14.5886 51.9015C14.5783 51.9845 14.5722 52.0455 14.5702 52.0844C14.5702 52.2787 14.5916 52.4485 14.6346 52.5933C14.7062 52.5827 14.7799 52.5747 14.8555 52.5683C14.9312 52.562 15.0059 52.559 15.0795 52.559C15.2657 52.559 15.4417 52.584 15.6074 52.6335C15.7731 52.683 15.9214 52.7605 16.0523 52.8659C16.1832 52.9714 16.2917 53.1068 16.3776 53.2724C16.4635 53.4354 16.5188 53.6318 16.5433 53.8613C16.6456 53.7292 16.7387 53.5958 16.8226 53.4612C16.9064 53.3249 16.978 53.1843 17.0374 53.0395C17.0967 52.893 17.1427 52.741 17.1754 52.584C17.2082 52.4265 17.2245 52.2593 17.2245 52.0815ZM22.8064 50.4909V50.7851H21.9901V53.3714C21.9901 53.611 21.9472 53.8367 21.8612 54.0475C21.7753 54.2584 21.6577 54.4434 21.5083 54.6026C21.359 54.7617 21.1831 54.8875 20.9806 54.9806C20.778 55.0716 20.5612 55.1169 20.33 55.1169C20.1029 55.1169 19.8881 55.0737 19.6856 54.987C19.4831 54.8981 19.3061 54.7761 19.1547 54.6212C19.0033 54.4637 18.8837 54.2787 18.7957 54.0662C18.7077 53.8532 18.6637 53.6216 18.6637 53.3714V50.4909H18.9951V53.3714C18.9951 53.57 19.0269 53.7571 19.0903 53.9328C19.1537 54.1085 19.2437 54.2622 19.3603 54.3947C19.4769 54.5268 19.6171 54.6313 19.7807 54.708C19.9444 54.7842 20.1275 54.8227 20.33 54.8227C20.5305 54.8227 20.7115 54.7833 20.8731 54.7046C21.0368 54.6241 21.1759 54.5166 21.2905 54.3824C21.4071 54.2478 21.4961 54.0937 21.5574 53.9201C21.6209 53.7444 21.6526 53.5615 21.6526 53.3714V50.4909H22.8064ZM23.8191 55.0365H23.4877V50.4909H23.8191V52.4286C23.8784 52.3295 23.9479 52.2356 24.0277 52.1467C24.1095 52.0577 24.2036 51.979 24.31 51.9108C24.4184 51.8427 24.5412 51.7889 24.6783 51.7495C24.8153 51.7085 24.9698 51.6877 25.1416 51.6877C25.4076 51.6877 25.6439 51.7394 25.8505 51.8427C26.0571 51.946 26.232 52.0823 26.3752 52.2521C26.5184 52.4214 26.6268 52.6149 26.7005 52.8316C26.7762 53.0467 26.814 53.2669 26.814 53.4925V53.7867H26.4765V53.4925C26.4663 53.3041 26.4284 53.1212 26.363 52.9434C26.2995 52.7635 26.2106 52.6043 26.096 52.4659C25.9835 52.3274 25.8474 52.2157 25.6878 52.131C25.5283 52.0463 25.3483 52.004 25.1478 52.004C24.9493 52.004 24.7683 52.0455 24.6046 52.128C24.443 52.2106 24.3039 52.3211 24.1873 52.4599C24.0727 52.5963 23.9827 52.7542 23.9172 52.9341C23.8538 53.114 23.8211 53.2999 23.8191 53.4925V55.0365ZM30.343 54.7418C30.2202 54.8515 30.0658 54.9412 29.8796 55.0115C29.6955 55.0818 29.4746 55.1169 29.2168 55.1169C29.0081 55.1169 28.824 55.0932 28.6644 55.0458C28.5069 54.9984 28.3688 54.9353 28.2502 54.8566C28.1336 54.7761 28.0343 54.686 27.9525 54.5869C27.8727 54.4857 27.8073 54.3824 27.7561 54.277C27.6334 54.031 27.5638 53.7508 27.5475 53.4366V50.4909H27.8819V53.4366C27.8942 53.6885 27.9495 53.9129 28.0476 54.1093C28.0886 54.194 28.1407 54.277 28.2041 54.3574C28.2696 54.4362 28.3494 54.5073 28.4435 54.5712C28.5397 54.6335 28.6511 54.6838 28.778 54.7232C28.9048 54.7605 29.0521 54.7791 29.2199 54.7791C29.4122 54.7791 29.5799 54.7524 29.7231 54.6987C29.8663 54.6428 29.986 54.5755 30.0821 54.4971C30.0167 54.4349 29.9471 54.371 29.8735 54.3045C29.8019 54.2363 29.7354 54.1724 29.674 54.1123C29.6843 54.1 29.7006 54.0814 29.7231 54.0568C29.7456 54.0319 29.762 54.0141 29.7722 54.0039C29.7865 53.9874 29.807 53.9646 29.8336 53.9358C29.8622 53.907 29.8847 53.8828 29.9011 53.8642C29.9686 53.9307 30.0351 53.9946 30.1006 54.0568C30.166 54.1187 30.2315 54.1809 30.297 54.2427C30.3583 54.1496 30.4043 54.0556 30.4351 53.9603C30.4678 53.8655 30.4913 53.7787 30.5056 53.7C30.522 53.6089 30.5312 53.5213 30.5333 53.4366V50.4909H30.8647V53.4366C30.8687 53.5501 30.8616 53.6669 30.8432 53.7867C30.8268 53.89 30.7971 54.0039 30.7542 54.128C30.7133 54.252 30.6499 54.3731 30.5639 54.4908C30.6437 54.5653 30.7286 54.6449 30.8186 54.7296C30.9087 54.8121 30.9925 54.8909 31.0703 54.9654C31.06 54.9755 31.0426 54.9942 31.0181 55.0208C30.9956 55.0479 30.9792 55.0666 30.969 55.0767C30.9526 55.0911 30.9312 55.1131 30.9046 55.1419C30.8779 55.1728 30.8565 55.1965 30.8401 55.213L30.343 54.7418ZM31.9172 50.4909H32.2486V51.0675H32.8102C33.0577 50.869 33.3308 50.7161 33.6295 50.6086C33.9282 50.4989 34.2361 50.4443 34.5532 50.4443C34.6371 50.4443 34.725 50.4494 34.8171 50.4596C34.9091 50.4702 35.0073 50.4875 35.1117 50.5125L35.0411 50.8317C34.949 50.8114 34.8631 50.7966 34.7833 50.7885C34.7035 50.7801 34.6278 50.7762 34.5562 50.7762C34.3599 50.7762 34.1655 50.8021 33.9732 50.8537C33.7809 50.9033 33.5968 50.9744 33.4209 51.0675H33.6203V51.0705C33.8228 51.0768 34.0008 51.1056 34.1542 51.1573C34.3077 51.2089 34.4406 51.2754 34.5532 51.3558C34.6677 51.4367 34.7639 51.5264 34.8416 51.6255C34.9194 51.725 34.9838 51.8262 35.0349 51.9295C35.1536 52.1712 35.2211 52.4443 35.2375 52.7482V53.4396C35.2211 53.7537 35.1526 54.034 35.0319 54.28C34.9807 54.3854 34.9152 54.4887 34.8355 54.5899C34.7557 54.6893 34.6575 54.7791 34.5409 54.8599C34.4243 54.9383 34.2872 55.0014 34.1297 55.0488C33.9742 55.0966 33.7932 55.1203 33.5866 55.1203C33.3779 55.1203 33.1938 55.0966 33.0342 55.0488C32.8767 55.0014 32.7396 54.9383 32.623 54.8599C32.5064 54.7791 32.4072 54.6893 32.3253 54.5899C32.2456 54.4887 32.1801 54.3854 32.129 54.28C32.0062 54.034 31.9366 53.7537 31.9203 53.4396V52.7482C31.9284 52.4794 31.9816 52.2322 32.0799 52.0069C32.178 51.7796 32.3079 51.573 32.4695 51.3867H31.9172V50.4909ZM33.5896 54.8007C33.7553 54.8007 33.9006 54.7821 34.0254 54.7452C34.1502 54.7058 34.2586 54.6542 34.3506 54.5899C34.4447 54.5259 34.5235 54.4535 34.5869 54.3731C34.6503 54.2901 34.7025 54.2067 34.7434 54.1216C34.8396 53.9214 34.8938 53.694 34.9061 53.4396V52.7482C34.8917 52.4959 34.8345 52.2694 34.7342 52.0692C34.6913 51.9845 34.636 51.9015 34.5685 51.8211C34.5031 51.7381 34.4222 51.6649 34.3261 51.6009C34.2299 51.5366 34.1164 51.4849 33.9855 51.446C33.8545 51.4066 33.7032 51.3867 33.5313 51.3867H32.9483C32.8439 51.4756 32.7488 51.573 32.6629 51.6784C32.579 51.7817 32.5064 51.8922 32.445 52.0103C32.3836 52.1259 32.3356 52.247 32.3008 52.3727C32.2681 52.4968 32.2517 52.6242 32.2517 52.7542V53.4396C32.2639 53.694 32.3192 53.9214 32.4174 54.1216C32.4583 54.2067 32.5105 54.2901 32.5739 54.3731C32.6393 54.4535 32.7192 54.5259 32.8133 54.5899C32.9094 54.6542 33.0209 54.7058 33.1477 54.7452C33.2746 54.7821 33.4219 54.8007 33.5896 54.8007ZM35.6978 50.4909H36.8424V53.393C36.8547 53.6576 36.9099 53.8922 37.0081 54.0971C37.049 54.186 37.1012 54.2728 37.1646 54.3574C37.2301 54.44 37.3088 54.5145 37.4009 54.5805C37.495 54.647 37.6054 54.7008 37.7323 54.7418C37.8591 54.7812 38.0054 54.8007 38.1711 54.8007C38.3368 54.8007 38.4831 54.7812 38.6099 54.7418C38.7367 54.7008 38.8472 54.647 38.9413 54.5805C39.0354 54.5145 39.1142 54.44 39.1776 54.3574C39.2431 54.2728 39.2963 54.186 39.3372 54.0971C39.4354 53.8922 39.4906 53.6576 39.5029 53.393V52.9375H39.8343V53.393C39.8343 53.3951 39.8333 53.4222 39.8312 53.4739C39.8292 53.5234 39.821 53.5895 39.8067 53.672C39.7944 53.7529 39.7739 53.8447 39.7453 53.948C39.7187 54.0513 39.6788 54.1568 39.6256 54.2643C39.5745 54.3697 39.509 54.4743 39.4293 54.5776C39.3494 54.6788 39.2502 54.7698 39.1316 54.8506C39.015 54.9311 38.8779 54.995 38.7204 55.0428C38.5629 55.0924 38.3798 55.1169 38.1711 55.1169C37.9624 55.1169 37.7793 55.0924 37.6218 55.0428C37.4643 54.9929 37.3272 54.9281 37.2106 54.8472C37.094 54.7668 36.9948 54.6749 36.913 54.5712C36.8332 54.4679 36.7677 54.3625 36.7166 54.255C36.5938 54.0031 36.5243 53.7156 36.5079 53.393V50.7851H35.6978V50.4909ZM40.9421 55.0365H40.6107V50.4909H40.9421V52.4286C41.0014 52.3295 41.071 52.2356 41.1508 52.1467C41.2326 52.0577 41.3267 51.979 41.4331 51.9108C41.5415 51.8427 41.6642 51.7889 41.8013 51.7495C41.9383 51.7085 42.0929 51.6877 42.2647 51.6877C42.5307 51.6877 42.767 51.7394 42.9736 51.8427C43.1801 51.946 43.3549 52.0823 43.4981 52.2521C43.6414 52.4214 43.75 52.6149 43.8237 52.8316C43.8991 53.0467 43.9372 53.2669 43.9372 53.4925V53.7867H43.5995V53.4925C43.5895 53.3041 43.5514 53.1212 43.486 52.9434C43.4227 52.7635 43.3335 52.6043 43.2191 52.4659C43.1064 52.3274 42.9707 52.2157 42.811 52.131C42.6514 52.0463 42.4712 52.004 42.271 52.004C42.0724 52.004 41.8913 52.0455 41.7277 52.128C41.5661 52.2106 41.4269 52.3211 41.3103 52.4599C41.1958 52.5963 41.1057 52.7542 41.0403 52.9341C40.9769 53.114 40.9441 53.2999 40.9421 53.4925V55.0365ZM50.1141 55.0365H49.7827V52.2178C49.7827 52.0048 49.748 51.8084 49.6784 51.6289C49.611 51.449 49.5138 51.2927 49.3868 51.1607C49.2603 51.0281 49.1069 50.924 48.9268 50.8474C48.7487 50.7686 48.5501 50.7263 48.3314 50.7204V53.52H48V50.7204C47.7893 50.7284 47.5949 50.772 47.4168 50.8503C47.2392 50.9291 47.0854 51.0345 46.9568 51.1666C46.8277 51.2991 46.7276 51.4553 46.6559 51.6348C46.5843 51.8147 46.5487 52.0091 46.5487 52.2178V52.4845H46.2139V52.2178C46.2202 51.9451 46.2692 51.6979 46.3614 51.4769C46.4536 51.2534 46.5822 51.0633 46.7481 50.9062C46.9157 50.747 47.1181 50.6251 47.3556 50.5404C47.5928 50.4536 47.8617 50.41 48.1626 50.41C48.4655 50.41 48.7366 50.4515 48.9758 50.5341C49.2171 50.6171 49.4216 50.7369 49.5896 50.8939C49.7572 51.0489 49.8862 51.2381 49.9763 51.4612C50.0664 51.6848 50.112 51.9367 50.1141 52.2178V55.0365ZM54.4044 52.1187H51.4092V53.4366C51.4213 53.6885 51.4766 53.9129 51.5751 54.1093C51.6157 54.194 51.6681 54.277 51.7314 54.3574C51.7967 54.4362 51.8768 54.5073 51.9706 54.5712C52.067 54.6335 52.1784 54.6838 52.3054 54.7232C52.4323 54.7605 52.5794 54.7791 52.747 54.7791C52.9108 54.7791 53.0549 54.7605 53.1798 54.7232C53.3046 54.6838 53.4131 54.6335 53.5053 54.5712C53.5971 54.5073 53.675 54.4362 53.7382 54.3574C53.8019 54.277 53.8539 54.194 53.8949 54.1093C53.993 53.9129 54.0491 53.6885 54.0638 53.4366V53.1945H54.3952V53.4366C54.3789 53.7508 54.3093 54.031 54.1865 54.277C54.1333 54.3824 54.0667 54.4857 53.9867 54.5869C53.9071 54.686 53.8091 54.7761 53.6922 54.8566C53.5778 54.9353 53.4416 54.9984 53.2841 55.0458C53.1286 55.0932 52.9485 55.1169 52.744 55.1169C52.5375 55.1169 52.3544 55.0932 52.1948 55.0458C52.0372 54.9984 51.9002 54.9353 51.7837 54.8566C51.6668 54.7761 51.568 54.686 51.4859 54.5869C51.4062 54.4857 51.3409 54.3824 51.2894 54.277C51.167 54.031 51.0962 53.7508 51.0778 53.4366V50.4909H51.4092V51.8177H54.4044V52.1187ZM55.4875 53.7622C55.5285 53.9379 55.5897 54.092 55.6714 54.2241C55.7556 54.3566 55.8566 54.4671 55.9756 54.556C56.0941 54.6428 56.2269 54.7088 56.3744 54.7541C56.5236 54.7977 56.684 54.8193 56.8562 54.8193C57.0444 54.8193 57.2224 54.802 57.39 54.7668C57.5576 54.7317 57.7042 54.6758 57.8287 54.5992C57.9556 54.5208 58.0558 54.4192 58.1295 54.2956C58.2032 54.1695 58.2401 54.0154 58.2401 53.8333C58.2401 53.6517 58.2032 53.4955 58.1295 53.3651C58.0558 53.233 57.9556 53.1242 57.8287 53.0395C57.7042 52.9548 57.5576 52.893 57.39 52.8537C57.2224 52.8122 57.0444 52.7914 56.8562 52.7914C56.635 52.7914 56.4327 52.772 56.2483 52.7326C56.0665 52.6911 55.9089 52.625 55.7757 52.534C55.6429 52.4434 55.5398 52.3245 55.4661 52.1776C55.3924 52.029 55.3555 51.8469 55.3555 51.6318C55.3555 51.4583 55.3924 51.297 55.4661 51.148C55.5398 50.9972 55.6429 50.8681 55.7757 50.7606C55.9089 50.6509 56.0665 50.565 56.2483 50.5032C56.4327 50.4414 56.635 50.41 56.8562 50.41C57.2878 50.41 57.6355 50.5032 57.8995 50.689C58.1655 50.8753 58.3361 51.1615 58.4119 51.548H58.0897C58.0486 51.3867 57.9917 51.2525 57.9179 51.145C57.8442 51.0353 57.7541 50.9477 57.6477 50.8817C57.5434 50.8131 57.4248 50.7657 57.292 50.739C57.1587 50.7098 57.0138 50.6954 56.8562 50.6954C56.666 50.6954 56.4972 50.7204 56.3497 50.7699C56.2026 50.8173 56.0778 50.8834 55.9756 50.9684C55.875 51.051 55.7983 51.1492 55.7451 51.2627C55.694 51.3766 55.6685 51.4998 55.6685 51.6318C55.6685 51.758 55.6848 51.8736 55.7175 51.979C55.7501 52.0844 55.8105 52.1754 55.8985 52.2521C55.9865 52.3287 56.1075 52.3884 56.2609 52.432C56.4142 52.4731 56.6128 52.4938 56.8562 52.4938C57.1344 52.4938 57.3787 52.5268 57.5894 52.5933C57.8023 52.6572 57.9791 52.7482 58.1203 52.8659C58.2636 52.9836 58.3708 53.1255 58.4425 53.2906C58.5162 53.454 58.5531 53.6348 58.5531 53.8333C58.5531 54.0319 58.517 54.2105 58.4458 54.3697C58.3742 54.5268 58.2665 54.6614 58.1236 54.7727C57.9824 54.8824 57.8052 54.9671 57.5924 55.0272C57.3816 55.0873 57.1365 55.1169 56.8562 55.1169C56.6535 55.1169 56.4716 55.0924 56.3099 55.0428C56.1503 54.9929 56.0082 54.929 55.8834 54.8506C55.7606 54.7698 55.655 54.68 55.5671 54.5805C55.4791 54.4794 55.4079 54.379 55.3526 54.28C55.2972 54.1788 55.2562 54.0827 55.2298 53.9916C55.203 53.9006 55.19 53.824 55.19 53.7622H55.4875ZM62.1219 54.7418C61.9991 54.8515 61.8445 54.9412 61.6585 55.0115C61.4746 55.0818 61.2534 55.1169 60.9957 55.1169C60.787 55.1169 60.6027 55.0932 60.4435 55.0458C60.2859 54.9984 60.1477 54.9353 60.0291 54.8566C59.9126 54.7761 59.8133 54.686 59.7312 54.5869C59.6516 54.4857 59.5863 54.3824 59.5352 54.277C59.4124 54.031 59.3428 53.7508 59.3265 53.4366V50.4909H59.6608V53.4366C59.673 53.6885 59.7283 53.9129 59.8263 54.1093C59.8674 54.194 59.9198 54.277 59.983 54.3574C60.0484 54.4362 60.1284 54.5073 60.2223 54.5712C60.3186 54.6335 60.4301 54.6838 60.557 54.7232C60.6836 54.7605 60.831 54.7791 60.9986 54.7791C61.1909 54.7791 61.3589 54.7524 61.5018 54.6987C61.6451 54.6428 61.7649 54.5755 61.8609 54.4971C61.7955 54.4349 61.726 54.371 61.6522 54.3045C61.5806 54.2363 61.5144 54.1724 61.4528 54.1123C61.4633 54.1 61.4796 54.0814 61.5018 54.0568C61.5244 54.0319 61.5408 54.0141 61.5512 54.0039C61.5655 53.9874 61.586 53.9646 61.6124 53.9358C61.6413 53.907 61.6635 53.8828 61.6799 53.8642C61.7473 53.9307 61.8139 53.9946 61.8793 54.0568C61.9451 54.1187 62.0104 54.1809 62.0758 54.2427C62.1374 54.1496 62.1831 54.0556 62.2141 53.9603C62.2467 53.8655 62.2702 53.7787 62.2844 53.7C62.3008 53.6089 62.31 53.5213 62.3121 53.4366V50.4909H62.6435V53.4366C62.6477 53.5501 62.6406 53.6669 62.6221 53.7867C62.6058 53.89 62.5761 54.0039 62.5329 54.128C62.4923 54.252 62.4286 54.3731 62.3427 54.4908C62.4227 54.5653 62.5073 54.6449 62.5974 54.7296C62.6875 54.8121 62.7713 54.8909 62.8492 54.9654C62.8387 54.9755 62.8216 54.9942 62.7968 55.0208C62.7746 55.0479 62.7583 55.0666 62.7478 55.0767C62.7315 55.0911 62.7101 55.1131 62.6833 55.1419C62.6569 55.1728 62.6355 55.1965 62.6188 55.213L62.1219 54.7418ZM66.7339 51.8177H67.0687V55.0365H66.7339V53.2165C66.648 53.3528 66.5542 53.4654 66.4515 53.5543C66.3514 53.6411 66.245 53.7105 66.1327 53.7622C66.02 53.8117 65.9023 53.8469 65.7795 53.8676C65.6588 53.8862 65.5353 53.8955 65.4083 53.8955C65.1485 53.8955 64.9152 53.8447 64.7086 53.7436C64.5042 53.6424 64.3303 53.5077 64.187 53.3405C64.0437 53.1708 63.9335 52.9777 63.8556 52.7605C63.7798 52.5433 63.7412 52.3194 63.7391 52.0878V50.4909H64.0735V52.1619C64.0839 52.3503 64.1237 52.5311 64.1933 52.7046C64.2649 52.8761 64.3588 53.0281 64.4757 53.1606C64.5921 53.2906 64.7291 53.3951 64.8867 53.4739C65.0463 53.5522 65.2193 53.5916 65.4054 53.5916C65.6161 53.5916 65.8034 53.5501 65.9668 53.4675C66.1327 53.3829 66.2718 53.2711 66.3841 53.1327C66.4968 52.9921 66.5827 52.8316 66.6422 52.6521C66.7013 52.4722 66.7318 52.2872 66.7339 52.0971V51.8177ZM70.8122 54.7418C70.6895 54.8515 70.5353 54.9412 70.3488 55.0115C70.1649 55.0818 69.9437 55.1169 69.686 55.1169C69.4774 55.1169 69.2934 55.0932 69.1338 55.0458C68.9763 54.9984 68.838 54.9353 68.7194 54.8566C68.603 54.7761 68.5037 54.686 68.422 54.5869C68.3419 54.4857 68.2766 54.3824 68.2255 54.277C68.1027 54.031 68.0332 53.7508 68.0168 53.4366V50.4909H68.3512V53.4366C68.3633 53.6885 68.4186 53.9129 68.5171 54.1093C68.5577 54.194 68.6101 54.277 68.6734 54.3574C68.7387 54.4362 68.8187 54.5073 68.9126 54.5712C69.0089 54.6335 69.1204 54.6838 69.2473 54.7232C69.3743 54.7605 69.5214 54.7791 69.6889 54.7791C69.8812 54.7791 70.0493 54.7524 70.1925 54.6987C70.3354 54.6428 70.4552 54.5755 70.5516 54.4971C70.4858 54.4349 70.4163 54.371 70.343 54.3045C70.2713 54.2363 70.2047 54.1724 70.1431 54.1123C70.1536 54.1 70.1699 54.0814 70.1925 54.0568C70.2148 54.0319 70.2311 54.0141 70.2416 54.0039C70.2558 53.9874 70.2763 53.9646 70.3027 53.9358C70.3316 53.907 70.3539 53.8828 70.3702 53.8642C70.4381 53.9307 70.5043 53.9946 70.57 54.0568C70.6354 54.1187 70.7008 54.1809 70.7661 54.2427C70.8277 54.1496 70.8738 54.0556 70.9044 53.9603C70.9371 53.8655 70.9605 53.7787 70.9748 53.7C70.9911 53.6089 71.0003 53.5213 71.0024 53.4366V50.4909H71.3338V53.4366C71.338 53.5501 71.3309 53.6669 71.3125 53.7867C71.2961 53.89 71.2664 54.0039 71.2236 54.128C71.1826 54.252 71.1193 54.3731 71.0334 54.4908C71.113 54.5653 71.1981 54.6449 71.2877 54.7296C71.3778 54.8121 71.4616 54.8909 71.5395 54.9654C71.5295 54.9755 71.5119 54.9942 71.4872 55.0208C71.465 55.0479 71.4486 55.0666 71.4382 55.0767C71.4218 55.0911 71.4004 55.1131 71.3736 55.1419C71.3472 55.1728 71.3259 55.1965 71.3095 55.213L70.8122 54.7418ZM71.8035 50.4909H72.9481V53.393C72.9603 53.6576 73.0156 53.8922 73.1136 54.0971C73.1547 54.186 73.2066 54.2728 73.2703 54.3574C73.3357 54.44 73.4144 54.5145 73.5066 54.5805C73.6005 54.647 73.7111 54.7008 73.838 54.7418C73.965 54.7812 74.1112 54.8007 74.2767 54.8007C74.4426 54.8007 74.5888 54.7812 74.7158 54.7418C74.8423 54.7008 74.9529 54.647 75.0472 54.5805C75.141 54.5145 75.2198 54.44 75.2835 54.3574C75.3488 54.2728 75.402 54.186 75.4427 54.0971C75.5411 53.8922 75.5965 53.6576 75.6086 53.393V52.9375H75.94V53.393C75.94 53.3951 75.9388 53.4222 75.9371 53.4739C75.935 53.5234 75.9266 53.5895 75.9124 53.672C75.9002 53.7529 75.8797 53.8447 75.8512 53.948C75.8244 54.0513 75.7846 54.1568 75.7314 54.2643C75.6802 54.3697 75.6149 54.4743 75.5349 54.5776C75.4553 54.6788 75.356 54.7698 75.2374 54.8506C75.1205 54.9311 74.9835 54.995 74.826 55.0428C74.6684 55.0924 74.4853 55.1169 74.2767 55.1169C74.068 55.1169 73.885 55.0924 73.7274 55.0428C73.5699 54.9929 73.4329 54.9281 73.3164 54.8472C73.1995 54.7668 73.1006 54.6749 73.0185 54.5712C72.9389 54.4679 72.8735 54.3625 72.8224 54.255C72.6997 54.0031 72.6301 53.7156 72.6134 53.393V50.7851H71.8035V50.4909ZM81.7336 54.6241H78.9382V55.0395H78.6068V54.6241H78.1895V54.3265H78.6068V51.9108C78.6105 51.6856 78.6545 51.482 78.7387 51.2999C78.8225 51.1183 78.934 50.9629 79.0731 50.8351C79.2143 50.7047 79.3777 50.6044 79.5641 50.5341C79.7501 50.4638 79.9475 50.4287 80.1561 50.4287C80.3752 50.4287 80.5776 50.4659 80.7641 50.5404C80.9501 50.6149 81.1118 50.7182 81.2488 50.8503C81.3858 50.9807 81.4922 51.1369 81.5681 51.3186C81.6456 51.5006 81.6845 51.6979 81.6845 51.9108C81.6845 52.1445 81.6447 52.3524 81.5647 52.534C81.4851 52.7161 81.3758 52.871 81.2367 52.9993C81.0992 53.1255 80.9379 53.2216 80.7515 53.2876C80.5655 53.3536 80.3669 53.3871 80.1561 53.3871C80.0581 53.3871 79.9529 53.3786 79.8402 53.3621C79.7296 53.3435 79.6203 53.3126 79.5117 53.269C79.4037 53.2237 79.2993 53.1636 79.1988 53.089C79.0986 53.015 79.0115 52.9197 78.9382 52.8041V54.3265H81.7336V54.6241ZM81.3502 51.9108C81.3502 51.733 81.3184 51.5709 81.2547 51.424C81.1935 51.2775 81.1084 51.1522 81.0004 51.0489C80.8939 50.9435 80.7678 50.863 80.6229 50.8071C80.4775 50.7491 80.322 50.7204 80.1561 50.7204C79.9802 50.7204 79.8176 50.75 79.6684 50.8101C79.521 50.8702 79.3932 50.9536 79.2847 51.0612C79.1766 51.1666 79.0915 51.2927 79.0299 51.4396C78.9688 51.5844 78.9382 51.7415 78.9382 51.9108C78.9382 52.0908 78.9709 52.2542 79.0362 52.4007C79.1016 52.5455 79.1896 52.6695 79.3002 52.7728C79.4108 52.8744 79.5394 52.9527 79.6869 53.0086C79.8339 53.0645 79.9906 53.0924 80.1561 53.0924C80.3321 53.0924 80.493 53.0632 80.6379 53.0056C80.7854 52.9455 80.9111 52.863 81.0154 52.7576C81.1219 52.6521 81.2036 52.5281 81.261 52.3854C81.3205 52.2406 81.3502 52.0823 81.3502 51.9108ZM85.9501 55.0365H85.6124V52.1805C85.6003 51.9079 85.5449 51.664 85.4465 51.449C85.4058 51.3579 85.3535 51.269 85.2902 51.1822C85.2265 51.0933 85.1478 51.0146 85.0539 50.9464C84.9617 50.8762 84.8524 50.8207 84.7254 50.7792C84.6006 50.7356 84.4556 50.714 84.2897 50.714C84.1221 50.714 83.9746 50.7356 83.8477 50.7792C83.7212 50.8207 83.6106 50.8762 83.5163 50.9464C83.4224 51.0146 83.3424 51.0933 83.2771 51.1822C83.2138 51.269 83.1614 51.3579 83.1208 51.449C83.0223 51.664 82.967 51.9079 82.9549 52.1805V55.0365H82.6235V52.1805C82.6377 51.852 82.7064 51.5573 82.8292 51.297C82.8803 51.1852 82.9456 51.0768 83.0257 50.9714C83.1074 50.866 83.2067 50.772 83.3231 50.689C83.4417 50.6044 83.58 50.5375 83.7375 50.4875C83.8971 50.4359 84.0811 50.41 84.2897 50.41C84.4963 50.41 84.6785 50.4359 84.836 50.4875C84.9936 50.5375 85.1306 50.6044 85.2471 50.689C85.364 50.772 85.462 50.866 85.5416 50.9714C85.6216 51.0768 85.6882 51.1852 85.741 51.297C85.8638 51.5573 85.9333 51.852 85.9501 52.1805V55.0365ZM86.9808 55.0365V50.4909H87.3155V54.7418H89.5709V55.0365H86.9808ZM93.603 52.1187H90.6082V53.4366C90.6204 53.6885 90.6757 53.9129 90.7737 54.1093C90.8148 54.194 90.8667 54.277 90.9304 54.3574C90.9958 54.4362 91.0754 54.5073 91.1697 54.5712C91.266 54.6335 91.3775 54.6838 91.504 54.7232C91.6309 54.7605 91.7784 54.7791 91.946 54.7791C92.1098 54.7791 92.254 54.7605 92.3788 54.7232C92.5037 54.6838 92.6118 54.6335 92.7039 54.5712C92.7961 54.5073 92.8736 54.4362 92.9373 54.3574C93.0006 54.277 93.0529 54.194 93.0936 54.1093C93.192 53.9129 93.2482 53.6885 93.2624 53.4366V53.1945H93.5938V53.4366C93.5775 53.7508 93.5079 54.031 93.3852 54.277C93.332 54.3824 93.2654 54.4857 93.1857 54.5869C93.1061 54.686 93.0077 54.7761 92.8912 54.8566C92.7764 54.9353 92.6407 54.9984 92.4831 55.0458C92.3277 55.0932 92.1475 55.1169 91.9431 55.1169C91.7365 55.1169 91.5534 55.0932 91.3938 55.0458C91.2363 54.9984 91.0993 54.9353 90.9824 54.8566C90.8659 54.7761 90.7666 54.686 90.6849 54.5869C90.6049 54.4857 90.5395 54.3824 90.4884 54.277C90.3656 54.031 90.2953 53.7508 90.2768 53.4366V50.4909H90.6082V51.8177H93.603V52.1187ZM94.754 52.9032C94.7028 52.7876 94.6626 52.6572 94.6341 52.5124C94.6077 52.3655 94.5943 52.222 94.5943 52.0815C94.5943 52.0548 94.5973 52.0103 94.6035 51.9481C94.6094 51.8842 94.6207 51.8105 94.6371 51.728C94.6555 51.6433 94.6802 51.5523 94.7108 51.4553C94.7435 51.3558 94.7875 51.2576 94.8428 51.1607C94.8981 51.0612 94.9655 50.9663 95.0456 50.8753C95.1252 50.7843 95.2211 50.7038 95.3338 50.6336C95.4482 50.5633 95.5802 50.5074 95.7297 50.4659C95.8789 50.4227 96.0498 50.4007 96.2422 50.4007C96.4508 50.4007 96.6339 50.4257 96.7914 50.4752C96.9511 50.5227 97.0889 50.5857 97.2058 50.6645C97.3244 50.7428 97.4237 50.833 97.5033 50.9342C97.5833 51.0332 97.6495 51.1357 97.7027 51.2411C97.8254 51.4892 97.895 51.7694 97.9113 52.0815C97.9113 52.2779 97.89 52.4693 97.8472 52.6551C97.8062 52.841 97.7488 53.0209 97.675 53.1945C97.6017 53.3663 97.5158 53.5293 97.4174 53.6847C97.3214 53.8397 97.2179 53.9832 97.1073 54.1157C96.9992 54.2457 96.8865 54.3638 96.7701 54.4692C96.6532 54.5746 96.5388 54.6635 96.4261 54.7359H97.9268V55.0365H94.5973V54.3138H94.9287V54.7232C95.1067 54.7232 95.2706 54.719 95.4197 54.7109C95.571 54.7008 95.7142 54.6766 95.8492 54.6394C95.9845 54.6025 96.1131 54.5475 96.2359 54.4751C96.3586 54.401 96.4814 54.2994 96.6041 54.1716C96.6041 54.161 96.6041 54.1508 96.6041 54.1402C96.6062 54.128 96.6075 54.1165 96.6075 54.1064C96.6075 53.8706 96.5736 53.6741 96.5061 53.5171C96.4386 53.3579 96.3486 53.2309 96.2359 53.1356C96.1236 53.0408 95.9937 52.9735 95.8462 52.9341C95.6992 52.8947 95.5454 52.8752 95.3862 52.8752C95.294 52.8752 95.1997 52.8816 95.1038 52.8939C95.0095 52.904 94.9144 52.9189 94.8185 52.9375L94.754 52.9032ZM97.5799 52.0815C97.5799 52.0463 97.5749 51.9883 97.5648 51.9079C97.5565 51.8253 97.5372 51.733 97.5066 51.6318C97.4756 51.5307 97.4308 51.4261 97.3713 51.3186C97.3122 51.211 97.2322 51.1128 97.132 51.0239C97.034 50.935 96.9113 50.863 96.7638 50.8071C96.6184 50.7491 96.4437 50.7204 96.2392 50.7204C96.0385 50.7204 95.8676 50.7491 95.7264 50.8071C95.5856 50.863 95.4658 50.935 95.3678 51.0239C95.2714 51.1111 95.1947 51.2081 95.1373 51.3156C95.0803 51.421 95.0363 51.5243 95.0053 51.6255C94.9748 51.7271 94.9542 51.819 94.9442 51.9015C94.9337 51.9845 94.9278 52.0455 94.9257 52.0844C94.9257 52.2787 94.9471 52.4485 94.9903 52.5933C95.0619 52.5827 95.1352 52.5747 95.2111 52.5683C95.2869 52.562 95.3615 52.559 95.4352 52.559C95.6212 52.559 95.7972 52.584 95.9627 52.6335C96.1286 52.683 96.2769 52.7605 96.4076 52.8659C96.5388 52.9714 96.6473 53.1068 96.7332 53.2724C96.8191 53.4354 96.8744 53.6318 96.8987 53.8613C97.0009 53.7292 97.0943 53.5958 97.1781 53.4612C97.2619 53.3249 97.3336 53.1843 97.3931 53.0395C97.4521 52.893 97.4982 52.741 97.5309 52.584C97.5636 52.4265 97.5799 52.2593 97.5799 52.0815Z" fill="#04243D"/>
</svg>
