<svg width="157" height="57" viewBox="0 0 157 57" fill="none" xmlns="http://www.w3.org/2000/svg">
<path d="M56.114 43.2959V5.14875H58.9163V16.2783H78.0912V18.8007H58.9163V40.7738H78.0912V43.2701L56.114 43.2959ZM117.635 43.2701H114.832V19.6328C114.832 17.8472 114.538 16.2003 113.95 14.6921C113.379 13.1839 112.557 11.875 111.485 10.7655C110.413 9.65604 109.115 8.78061 107.593 8.13917C106.088 7.48043 104.41 7.12503 102.559 7.07302V30.5543H99.757V7.07302C97.9751 7.14238 96.332 7.50643 94.827 8.16517C93.3221 8.82392 92.0247 9.70804 90.935 10.8175C89.8452 11.9271 88.9976 13.2359 88.3922 14.7441C87.7867 16.2523 87.484 17.8819 87.484 19.6328V21.8691H84.6558V19.6328C84.7077 17.3445 85.1228 15.2728 85.9012 13.4179C86.6797 11.5456 87.7694 9.95077 89.1706 8.63324C90.589 7.2984 92.3015 6.27556 94.3081 5.56481C96.3145 4.83671 98.5891 4.47266 101.132 4.47266C103.692 4.47266 105.984 4.81936 108.008 5.5128C110.049 6.20625 111.779 7.21169 113.198 8.52923C114.616 9.82941 115.706 11.4156 116.467 13.2879C117.228 15.1602 117.617 17.2751 117.635 19.6328V43.2701ZM153.338 39.8116H129.7V43.2959H126.898V39.8116H123.369V37.3153H126.898V17.0584C126.932 15.1688 127.304 13.4613 128.014 11.9357C128.723 10.4101 129.665 9.10996 130.842 8.03516C132.035 6.943 133.419 6.10223 134.993 5.5128C136.567 4.92337 138.236 4.62868 140.001 4.62868C141.852 4.62868 143.564 4.94072 145.139 5.56481C146.712 6.1889 148.079 7.05567 149.238 8.16517C150.397 9.25733 151.297 10.5662 151.936 12.0917C152.594 13.6173 152.923 15.2728 152.923 17.0584C152.923 19.0174 152.585 20.7596 151.911 22.2852C151.236 23.8107 150.311 25.1109 149.134 26.1857C147.975 27.2432 146.609 28.0493 145.035 28.604C143.461 29.1588 141.782 29.4362 140.001 29.4362C139.17 29.4362 138.28 29.3668 137.328 29.2281C136.394 29.0721 135.469 28.8121 134.552 28.448C133.635 28.0666 132.753 27.5639 131.905 26.9398C131.058 26.3157 130.323 25.5183 129.7 24.5475V37.3153H153.338V39.8116ZM150.094 17.0584C150.094 15.5676 149.826 14.2067 149.29 12.9759C148.771 11.745 148.053 10.6962 147.136 9.82941C146.237 8.94528 145.173 8.26919 143.945 7.80112C142.717 7.31571 141.402 7.07302 140.001 7.07302C138.513 7.07302 137.138 7.3244 135.875 7.82713C134.63 8.32985 133.549 9.03195 132.632 9.93342C131.715 10.8175 130.997 11.875 130.478 13.1059C129.959 14.3194 129.7 15.6369 129.7 17.0584C129.7 18.5666 129.977 19.9362 130.53 21.167C131.084 22.3805 131.828 23.4207 132.762 24.2874C133.696 25.1369 134.786 25.7957 136.031 26.2637C137.276 26.7318 138.6 26.9658 140.001 26.9658C141.489 26.9658 142.847 26.7231 144.075 26.2377C145.32 25.735 146.384 25.0415 147.266 24.1574C148.165 23.2733 148.858 22.2332 149.342 21.037C149.844 19.8235 150.094 18.4973 150.094 17.0584Z" fill="#04243D"/>
<path d="M153.364 46.1825H56.6329V47.0146H153.364V46.1825Z" fill="#0B4775"/>
<path d="M61.7448 54.0905V49.6204H62.0731V50.9243H64.3202V51.2201H62.0731V53.7951H64.3202V54.0876L61.7448 54.0905ZM65.503 51.9911C65.4524 51.8775 65.4128 51.7493 65.3844 51.607C65.3581 51.4627 65.3449 51.3216 65.3449 51.1835C65.3449 51.1573 65.3479 51.1136 65.354 51.0524C65.3601 50.9896 65.3712 50.9172 65.3875 50.8361C65.4057 50.7529 65.43 50.6634 65.4605 50.5681C65.4929 50.4704 65.5365 50.3738 65.5912 50.2786C65.6459 50.1808 65.7128 50.0876 65.7919 49.9981C65.871 49.9087 65.9662 49.8296 66.0777 49.7606C66.1912 49.6915 66.322 49.6366 66.4699 49.5958C66.6179 49.5534 66.7872 49.5317 66.9778 49.5317C67.1845 49.5317 67.3659 49.5563 67.522 49.605C67.6802 49.6516 67.817 49.7136 67.9325 49.7909C68.0501 49.8679 68.1484 49.9565 68.2274 50.056C68.3065 50.1533 68.3724 50.254 68.4251 50.3576C68.5467 50.6014 68.6157 50.8769 68.6318 51.1835C68.6318 51.3765 68.6106 51.5646 68.568 51.7472C68.5275 51.9299 68.4707 52.1067 68.3977 52.2773C68.3248 52.4462 68.2396 52.6064 68.1423 52.7591C68.0471 52.9114 67.9447 53.0524 67.8352 53.1826C67.7278 53.3104 67.6163 53.4265 67.5007 53.5301C67.3852 53.6337 67.2717 53.721 67.1602 53.7922H68.6471V54.0876H65.3479V53.3774H65.6763V53.7797C65.8527 53.7797 66.0148 53.7755 66.1629 53.7676C66.3128 53.7576 66.4547 53.7339 66.5885 53.6973C66.7223 53.6611 66.8501 53.607 66.9717 53.5359C67.0933 53.4631 67.2149 53.3632 67.3365 53.2376C67.3365 53.2272 67.3365 53.2172 67.3365 53.2068C67.3386 53.1947 67.3396 53.1835 67.3396 53.1735C67.3396 52.9418 67.3061 52.7487 67.2393 52.5943C67.1723 52.4379 67.0832 52.3131 66.9717 52.2195C66.8602 52.1263 66.7314 52.0601 66.5855 52.0214C66.4396 51.9827 66.2875 51.9636 66.1294 51.9636C66.0382 51.9636 65.9449 51.9698 65.8497 51.9819C65.7564 51.9919 65.6621 52.0065 65.5669 52.0248L65.503 51.9911ZM68.3035 51.1835C68.3035 51.149 68.2984 51.092 68.2883 51.0129C68.2802 50.9318 68.2609 50.8411 68.2305 50.7416C68.2001 50.6422 68.1555 50.5394 68.0967 50.4338C68.0379 50.3281 67.9588 50.2315 67.8595 50.1442C67.7622 50.0568 67.6406 49.9861 67.4947 49.9312C67.3507 49.8742 67.1774 49.8459 66.9747 49.8459C66.776 49.8459 66.6068 49.8742 66.4669 49.9312C66.327 49.9861 66.2084 50.0568 66.1112 50.1442C66.0159 50.2299 65.9399 50.3252 65.8831 50.4308C65.8263 50.5344 65.7828 50.636 65.7523 50.7354C65.722 50.8352 65.7017 50.9255 65.6915 51.0067C65.6814 51.0882 65.6753 51.1481 65.6733 51.1864C65.6733 51.3774 65.6946 51.5442 65.7372 51.6865C65.8081 51.6761 65.8811 51.6682 65.9561 51.662C66.0311 51.6557 66.1051 51.6528 66.178 51.6528C66.3625 51.6528 66.5369 51.6773 66.7011 51.726C66.8652 51.7747 67.0122 51.8508 67.1419 51.9544C67.2717 52.058 67.3791 52.1912 67.4642 52.3539C67.5494 52.514 67.6041 52.7071 67.6285 52.9326C67.7298 52.8028 67.8221 52.6717 67.9052 52.5394C67.9883 52.4055 68.0592 52.2673 68.118 52.125C68.1768 51.9811 68.2224 51.8317 68.2548 51.6774C68.2873 51.5226 68.3035 51.3582 68.3035 51.1835ZM73.8345 49.6204V49.9095H73.0256V52.4512C73.0256 52.6867 72.9831 52.9085 72.8979 53.1157C72.8128 53.3229 72.6962 53.5047 72.5482 53.6611C72.4003 53.8176 72.226 53.9411 72.0253 54.0327C71.8246 54.1221 71.6097 54.1666 71.3806 54.1666C71.1556 54.1666 70.9428 54.1242 70.7421 54.0389C70.5414 53.9515 70.3661 53.8317 70.2161 53.6794C70.066 53.5246 69.9475 53.3428 69.8603 53.134C69.7731 52.9247 69.7296 52.6971 69.7296 52.4512V49.6204H70.0579V52.4512C70.0579 52.6464 70.0894 52.8302 70.1522 53.0029C70.215 53.1756 70.3043 53.3266 70.4198 53.4568C70.5353 53.5866 70.6742 53.6894 70.8364 53.7647C70.9985 53.8396 71.1799 53.8775 71.3806 53.8775C71.5793 53.8775 71.7587 53.8388 71.9188 53.7614C72.081 53.6823 72.2189 53.5767 72.3324 53.4448C72.4479 53.3125 72.5361 53.161 72.5969 52.9904C72.6597 52.8178 72.6912 52.638 72.6912 52.4512V49.6204H73.8345ZM74.8379 54.0876H74.5095V49.6204H74.8379V51.5247C74.8967 51.4273 74.9656 51.3349 75.0446 51.2476C75.1257 51.1602 75.219 51.0828 75.3244 51.0158C75.4318 50.9488 75.5534 50.896 75.6893 50.8573C75.8251 50.8169 75.9781 50.7966 76.1484 50.7966C76.4119 50.7966 76.646 50.8473 76.8508 50.9488C77.0556 51.0504 77.2289 51.1843 77.3707 51.3512C77.5126 51.5176 77.6201 51.7077 77.6931 51.9207C77.7681 52.1321 77.8056 52.3485 77.8056 52.5702V52.8594H77.4711V52.5702C77.461 52.3851 77.4235 52.2053 77.3586 52.0306C77.2958 51.8538 77.2076 51.6973 77.094 51.5613C76.9826 51.4252 76.8478 51.3154 76.6896 51.2322C76.5315 51.149 76.3532 51.1073 76.1545 51.1073C75.9578 51.1073 75.7785 51.1481 75.6163 51.2293C75.4561 51.3104 75.3183 51.419 75.2028 51.5554C75.0892 51.6894 75 51.8446 74.9352 52.0214C74.8723 52.1983 74.8399 52.3809 74.8379 52.5702V54.0876ZM81.3024 53.798C81.1807 53.9058 81.0277 53.994 80.8432 54.063C80.6608 54.1321 80.4418 54.1666 80.1864 54.1666C79.9796 54.1666 79.7972 54.1433 79.6391 54.0967C79.483 54.0501 79.3462 53.9881 79.2286 53.9108C79.1131 53.8317 79.0147 53.7431 78.9337 53.6457C78.8546 53.5463 78.7897 53.4448 78.739 53.3412C78.6174 53.0994 78.5485 52.824 78.5323 52.5153V49.6204H78.8637V52.5153C78.8759 52.7628 78.9306 52.9834 79.0279 53.1764C79.0685 53.2596 79.1201 53.3412 79.183 53.4202C79.2479 53.4976 79.3269 53.5675 79.4202 53.6303C79.5155 53.6915 79.6259 53.741 79.7516 53.7797C79.8773 53.8163 80.0232 53.8346 80.1895 53.8346C80.38 53.8346 80.5462 53.8084 80.6881 53.7556C80.83 53.7006 80.9486 53.6345 81.0439 53.5575C80.979 53.4964 80.9101 53.4335 80.8371 53.3682C80.7662 53.3012 80.7003 53.2384 80.6395 53.1793C80.6496 53.1673 80.6658 53.1489 80.6881 53.1248C80.7104 53.1003 80.7266 53.0828 80.7368 53.0728C80.751 53.0566 80.7713 53.0341 80.7976 53.0058C80.826 52.9775 80.8483 52.9538 80.8645 52.9355C80.9314 53.0008 80.9973 53.0637 81.0622 53.1248C81.127 53.1856 81.1918 53.2467 81.2567 53.3075C81.3176 53.2159 81.3631 53.1236 81.3936 53.03C81.426 52.9368 81.4493 52.8515 81.4635 52.7741C81.4797 52.6846 81.4888 52.5985 81.4909 52.5153V49.6204H81.8193V52.5153C81.8233 52.6268 81.8162 52.7416 81.798 52.8594C81.7817 52.9609 81.7523 53.0728 81.7098 53.1947C81.6693 53.3166 81.6064 53.4356 81.5213 53.5513C81.6003 53.6245 81.6845 53.7027 81.7736 53.7859C81.8629 53.8671 81.946 53.9445 82.023 54.0177C82.0129 54.0277 81.9956 54.046 81.9713 54.0722C81.949 54.0988 81.9328 54.1171 81.9226 54.1271C81.9064 54.1412 81.8852 54.1629 81.8588 54.1912C81.8324 54.2215 81.8111 54.2448 81.7949 54.2611L81.3024 53.798ZM82.8622 49.6204H83.1906V50.187H83.747C83.9923 49.9919 84.2629 49.8417 84.5589 49.736C84.8549 49.6283 85.16 49.5746 85.4742 49.5746C85.5573 49.5746 85.6444 49.5796 85.7357 49.5896C85.8269 49.6 85.9242 49.617 86.0275 49.6416L85.9576 49.9553C85.8664 49.9353 85.7812 49.9208 85.7022 49.9128C85.6231 49.9045 85.5481 49.9008 85.4772 49.9008C85.2826 49.9008 85.09 49.9262 84.8995 49.9769C84.7089 50.0256 84.5265 50.0955 84.3522 50.187H84.5498V50.1899C84.7505 50.1962 84.9268 50.2245 85.0788 50.2752C85.2309 50.326 85.3626 50.3913 85.4742 50.4704C85.5877 50.5498 85.6829 50.638 85.76 50.7354C85.837 50.8332 85.9008 50.9326 85.9515 51.0341C86.0691 51.2717 86.136 51.5401 86.1522 51.8388V52.5182C86.136 52.8269 86.0681 53.1023 85.9485 53.3441C85.8978 53.4477 85.8329 53.5492 85.7539 53.6486C85.6748 53.7464 85.5775 53.8346 85.462 53.9141C85.3465 53.991 85.2106 54.053 85.0545 54.0996C84.9005 54.1467 84.7211 54.17 84.5164 54.17C84.3096 54.17 84.1271 54.1467 83.969 54.0996C83.8129 54.053 83.6771 53.991 83.5616 53.9141C83.446 53.8346 83.3477 53.7464 83.2666 53.6486C83.1876 53.5492 83.1227 53.4477 83.072 53.3441C82.9504 53.1023 82.8815 52.8269 82.8652 52.5182V51.8388C82.8733 51.5746 82.9261 51.3316 83.0234 51.1103C83.1206 50.8868 83.2494 50.6838 83.4095 50.5007H82.8622V49.6204ZM84.5194 53.8558C84.6836 53.8558 84.8275 53.8375 84.9511 53.8013C85.0748 53.7626 85.1823 53.7119 85.2735 53.6486C85.3667 53.5858 85.4448 53.5147 85.5076 53.4356C85.5704 53.3541 85.6221 53.2721 85.6627 53.1885C85.7579 52.9917 85.8117 52.7683 85.8238 52.5182V51.8388C85.8096 51.5908 85.7529 51.3682 85.6535 51.1714C85.611 51.0882 85.5562 51.0067 85.4893 50.9276C85.4245 50.8461 85.3444 50.7741 85.2491 50.7113C85.1539 50.648 85.0414 50.5973 84.9116 50.559C84.7819 50.5203 84.6319 50.5007 84.4616 50.5007H83.8839C83.7805 50.5881 83.6863 50.6838 83.6011 50.7874C83.518 50.8889 83.446 50.9975 83.3852 51.1136C83.3244 51.2272 83.2767 51.3462 83.2423 51.4697C83.2099 51.5916 83.1936 51.7169 83.1936 51.8446V52.5182C83.2058 52.7683 83.2606 52.9917 83.3578 53.1885C83.3984 53.2721 83.4501 53.3541 83.5129 53.4356C83.5778 53.5147 83.6569 53.5858 83.7501 53.6486C83.8454 53.7119 83.9559 53.7626 84.0815 53.8013C84.2072 53.8375 84.3532 53.8558 84.5194 53.8558ZM86.6083 49.6204H87.7425V52.4724C87.7547 52.7325 87.8094 52.963 87.9067 53.1643C87.9472 53.2517 87.9989 53.337 88.0618 53.4202C88.1266 53.5013 88.2047 53.5746 88.2959 53.6395C88.3891 53.7048 88.4986 53.7576 88.6243 53.798C88.75 53.8367 88.8949 53.8558 89.0591 53.8558C89.2233 53.8558 89.3682 53.8367 89.4939 53.798C89.6196 53.7576 89.7291 53.7048 89.8223 53.6395C89.9155 53.5746 89.9936 53.5013 90.0564 53.4202C90.1213 53.337 90.174 53.2517 90.2145 53.1643C90.3118 52.963 90.3666 52.7325 90.3788 52.4724V52.0248H90.7072V52.4724C90.7072 52.4745 90.7061 52.5011 90.7041 52.5519C90.7021 52.6006 90.694 52.6655 90.6798 52.7466C90.6676 52.8261 90.6473 52.9164 90.619 53.0179C90.5926 53.1194 90.5531 53.223 90.5004 53.3287C90.4497 53.4323 90.3848 53.5351 90.3058 53.6366C90.2267 53.736 90.1284 53.8255 90.0108 53.9049C89.8953 53.984 89.7595 54.0468 89.6034 54.0938C89.4473 54.1425 89.2659 54.1666 89.0591 54.1666C88.8523 54.1666 88.6709 54.1425 88.5148 54.0938C88.3587 54.0447 88.2229 53.9811 88.1074 53.9016C87.9918 53.8225 87.8935 53.7323 87.8124 53.6303C87.7334 53.5288 87.6685 53.4252 87.6178 53.3195C87.4962 53.072 87.4273 52.7895 87.411 52.4724V49.9095H86.6083V49.6204ZM91.8048 54.0876H91.4764V49.6204H91.8048V51.5247C91.8636 51.4273 91.9325 51.3349 92.0116 51.2476C92.0927 51.1602 92.1859 51.0828 92.2913 51.0158C92.3988 50.9488 92.5204 50.896 92.6562 50.8573C92.792 50.8169 92.9452 50.7966 93.1154 50.7966C93.379 50.7966 93.6131 50.8473 93.8178 50.9488C94.0225 51.0504 94.1956 51.1843 94.3376 51.3512C94.4796 51.5176 94.5871 51.7077 94.6602 51.9207C94.7349 52.1321 94.7727 52.3485 94.7727 52.5702V52.8594H94.4381V52.5702C94.4281 52.3851 94.3903 52.2053 94.3255 52.0306C94.2629 51.8538 94.1744 51.6973 94.0611 51.5613C93.9494 51.4252 93.8149 51.3154 93.6567 51.2322C93.4986 51.149 93.32 51.1073 93.1216 51.1073C92.9248 51.1073 92.7454 51.1481 92.5832 51.2293C92.4231 51.3104 92.2852 51.419 92.1697 51.5554C92.0562 51.6894 91.967 51.8446 91.9021 52.0214C91.8393 52.1983 91.8069 52.3809 91.8048 52.5702V54.0876ZM100.893 54.0876H100.565V51.3175C100.565 51.1082 100.53 50.9151 100.462 50.7387C100.395 50.5619 100.298 50.4084 100.173 50.2786C100.047 50.1483 99.8952 50.046 99.7167 49.9707C99.5403 49.8933 99.3435 49.8517 99.1268 49.8459V52.5973H98.7984V49.8459C98.5896 49.8538 98.397 49.8966 98.2205 49.9736C98.0445 50.051 97.8921 50.1546 97.7647 50.2844C97.6368 50.4146 97.5376 50.5681 97.4666 50.7445C97.3956 50.9214 97.3603 51.1123 97.3603 51.3175V51.5796H97.0286V51.3175C97.0348 51.0495 97.0834 50.8065 97.1747 50.5894C97.2661 50.3697 97.3935 50.1829 97.5579 50.0285C97.724 49.8721 97.9245 49.7522 98.1599 49.669C98.3949 49.5837 98.6614 49.5409 98.9595 49.5409C99.2596 49.5409 99.5282 49.5817 99.7653 49.6628C100.004 49.7443 100.207 49.8621 100.373 50.0164C100.54 50.1687 100.667 50.3547 100.757 50.574C100.846 50.7936 100.891 51.0412 100.893 51.3175V54.0876ZM105.144 51.2201H102.177V52.5153C102.189 52.7628 102.243 52.9834 102.341 53.1764C102.381 53.2596 102.433 53.3412 102.496 53.4202C102.561 53.4976 102.64 53.5675 102.733 53.6303C102.828 53.6915 102.939 53.741 103.065 53.7797C103.19 53.8163 103.336 53.8346 103.502 53.8346C103.664 53.8346 103.807 53.8163 103.931 53.7797C104.055 53.741 104.162 53.6915 104.254 53.6303C104.344 53.5675 104.422 53.4976 104.484 53.4202C104.547 53.3412 104.599 53.2596 104.64 53.1764C104.737 52.9834 104.792 52.7628 104.807 52.5153V52.2773H105.135V52.5153C105.119 52.824 105.05 53.0994 104.929 53.3412C104.876 53.4448 104.81 53.5463 104.731 53.6457C104.652 53.7431 104.554 53.8317 104.439 53.9108C104.325 53.9881 104.19 54.0501 104.034 54.0967C103.88 54.1433 103.702 54.1666 103.499 54.1666C103.295 54.1666 103.113 54.1433 102.955 54.0967C102.799 54.0501 102.663 53.9881 102.548 53.9108C102.432 53.8317 102.334 53.7431 102.252 53.6457C102.174 53.5463 102.109 53.4448 102.058 53.3412C101.937 53.0994 101.866 52.824 101.848 52.5153V49.6204H102.177V50.9243H105.144V51.2201ZM106.218 52.8352C106.258 53.0079 106.319 53.1593 106.4 53.2892C106.483 53.4194 106.583 53.528 106.701 53.6154C106.819 53.7006 106.95 53.7655 107.096 53.8101C107.244 53.8529 107.403 53.8741 107.574 53.8741C107.76 53.8741 107.937 53.8571 108.103 53.8225C108.269 53.788 108.414 53.7331 108.537 53.6578C108.663 53.5808 108.762 53.481 108.836 53.3595C108.909 53.2355 108.945 53.084 108.945 52.9051C108.945 52.7266 108.909 52.5731 108.836 52.445C108.762 52.3152 108.663 52.2082 108.537 52.125C108.414 52.0418 108.269 51.9811 108.103 51.9424C107.937 51.9016 107.76 51.8812 107.574 51.8812C107.355 51.8812 107.154 51.8621 106.972 51.8234C106.791 51.7826 106.635 51.7177 106.503 51.6283C106.372 51.5392 106.269 51.4223 106.196 51.2779C106.123 51.1319 106.087 50.953 106.087 50.7416C106.087 50.5711 106.123 50.4125 106.196 50.2661C106.269 50.118 106.372 49.9911 106.503 49.8854C106.635 49.7776 106.791 49.6932 106.972 49.6324C107.154 49.5717 107.355 49.5409 107.574 49.5409C108.002 49.5409 108.346 49.6324 108.608 49.8151C108.871 49.9981 109.04 50.2794 109.115 50.6593H108.796C108.755 50.5007 108.699 50.3688 108.626 50.2632C108.553 50.1554 108.464 50.0693 108.358 50.0044C108.255 49.937 108.137 49.8904 108.006 49.8642C107.874 49.8355 107.73 49.8213 107.574 49.8213C107.385 49.8213 107.218 49.8459 107.072 49.8945C106.926 49.9411 106.803 50.006 106.701 50.0897C106.602 50.1708 106.526 50.2673 106.473 50.3788C106.422 50.4908 106.397 50.6118 106.397 50.7416C106.397 50.8656 106.413 50.9792 106.446 51.0828C106.478 51.1864 106.538 51.2759 106.625 51.3512C106.712 51.4265 106.832 51.4851 106.984 51.528C107.136 51.5683 107.333 51.5887 107.574 51.5887C107.85 51.5887 108.092 51.6212 108.3 51.6865C108.511 51.7493 108.687 51.8388 108.826 51.9544C108.968 52.0701 109.075 52.2095 109.146 52.3718C109.219 52.5323 109.255 52.71 109.255 52.9051C109.255 53.1003 109.22 53.2758 109.149 53.4323C109.078 53.5866 108.971 53.7189 108.83 53.8284C108.69 53.9361 108.514 54.0193 108.303 54.0784C108.095 54.1375 107.852 54.1666 107.574 54.1666C107.373 54.1666 107.193 54.1425 107.033 54.0938C106.874 54.0447 106.734 53.9819 106.61 53.9049C106.488 53.8255 106.384 53.7373 106.296 53.6395C106.209 53.54 106.139 53.4414 106.084 53.3441C106.029 53.2446 105.988 53.1502 105.962 53.0607C105.936 52.9713 105.923 52.896 105.923 52.8352H106.218ZM112.792 53.798C112.67 53.9058 112.517 53.994 112.332 54.063C112.15 54.1321 111.931 54.1666 111.676 54.1666C111.469 54.1666 111.286 54.1433 111.128 54.0967C110.972 54.0501 110.835 53.9881 110.718 53.9108C110.602 53.8317 110.504 53.7431 110.423 53.6457C110.344 53.5463 110.279 53.4448 110.228 53.3412C110.107 53.0994 110.038 52.824 110.022 52.5153V49.6204H110.353V52.5153C110.365 52.7628 110.42 52.9834 110.517 53.1764C110.558 53.2596 110.61 53.3412 110.672 53.4202C110.737 53.4976 110.816 53.5675 110.909 53.6303C111.005 53.6915 111.115 53.741 111.241 53.7797C111.366 53.8163 111.512 53.8346 111.679 53.8346C111.869 53.8346 112.036 53.8084 112.177 53.7556C112.319 53.7006 112.438 53.6345 112.533 53.5575C112.468 53.4964 112.399 53.4335 112.326 53.3682C112.255 53.3012 112.19 53.2384 112.129 53.1793C112.139 53.1673 112.155 53.1489 112.177 53.1248C112.2 53.1003 112.216 53.0828 112.226 53.0728C112.24 53.0566 112.261 53.0341 112.287 53.0058C112.315 52.9775 112.337 52.9538 112.354 52.9355C112.42 53.0008 112.486 53.0637 112.551 53.1248C112.616 53.1856 112.681 53.2467 112.746 53.3075C112.807 53.2159 112.852 53.1236 112.883 53.03C112.915 52.9368 112.939 52.8515 112.953 52.7741C112.969 52.6846 112.978 52.5985 112.98 52.5153V49.6204H113.308V52.5153C113.313 52.6268 113.306 52.7416 113.287 52.8594C113.271 52.9609 113.242 53.0728 113.199 53.1947C113.159 53.3166 113.095 53.4356 113.01 53.5513C113.09 53.6245 113.173 53.7027 113.263 53.7859C113.352 53.8671 113.435 53.9445 113.512 54.0177C113.502 54.0277 113.485 54.046 113.46 54.0722C113.438 54.0988 113.422 54.1171 113.412 54.1271C113.396 54.1412 113.374 54.1629 113.348 54.1912C113.322 54.2215 113.301 54.2448 113.284 54.2611L112.792 53.798ZM117.362 50.9243H117.693V54.0876H117.362V52.2989C117.276 52.4329 117.183 52.5436 117.082 52.631C116.983 52.7162 116.877 52.7845 116.766 52.8352C116.654 52.8839 116.537 52.9185 116.416 52.9388C116.296 52.9571 116.174 52.9663 116.048 52.9663C115.791 52.9663 115.559 52.9164 115.355 52.8169C115.152 52.7175 114.98 52.5852 114.838 52.4208C114.696 52.254 114.587 52.0643 114.509 51.8508C114.434 51.6374 114.396 51.4173 114.394 51.1897V49.6204H114.725V51.2625C114.736 51.4477 114.775 51.6253 114.844 51.7959C114.915 51.9644 115.008 52.1138 115.124 52.244C115.239 52.3718 115.375 52.4745 115.531 52.5519C115.689 52.6289 115.861 52.6676 116.045 52.6676C116.254 52.6676 116.44 52.6268 116.601 52.5457C116.766 52.4625 116.904 52.3526 117.015 52.2166C117.127 52.0784 117.212 51.9207 117.271 51.7443C117.329 51.5675 117.359 51.3857 117.362 51.1989V50.9243ZM121.403 53.798C121.281 53.9058 121.128 53.994 120.943 54.063C120.761 54.1321 120.542 54.1666 120.287 54.1666C120.08 54.1666 119.898 54.1433 119.74 54.0967C119.583 54.0501 119.446 53.9881 119.329 53.9108C119.214 53.8317 119.115 53.7431 119.034 53.6457C118.955 53.5463 118.89 53.4448 118.839 53.3412C118.718 53.0994 118.649 52.824 118.633 52.5153V49.6204H118.964V52.5153C118.976 52.7628 119.031 52.9834 119.128 53.1764C119.169 53.2596 119.221 53.3412 119.283 53.4202C119.348 53.4976 119.427 53.5675 119.52 53.6303C119.616 53.6915 119.726 53.741 119.852 53.7797C119.978 53.8163 120.124 53.8346 120.29 53.8346C120.48 53.8346 120.647 53.8084 120.789 53.7556C120.93 53.7006 121.049 53.6345 121.144 53.5575C121.079 53.4964 121.01 53.4335 120.938 53.3682C120.867 53.3012 120.801 53.2384 120.74 53.1793C120.75 53.1673 120.766 53.1489 120.789 53.1248C120.811 53.1003 120.827 53.0828 120.837 53.0728C120.851 53.0566 120.872 53.0341 120.898 53.0058C120.926 52.9775 120.948 52.9538 120.965 52.9355C121.032 53.0008 121.098 53.0637 121.163 53.1248C121.227 53.1856 121.292 53.2467 121.357 53.3075C121.418 53.2159 121.464 53.1236 121.494 53.03C121.526 52.9368 121.55 52.8515 121.564 52.7741C121.58 52.6846 121.589 52.5985 121.591 52.5153V49.6204H121.92V52.5153C121.924 52.6268 121.917 52.7416 121.898 52.8594C121.882 52.9609 121.853 53.0728 121.81 53.1947C121.77 53.3166 121.707 53.4356 121.622 53.5513C121.701 53.6245 121.785 53.7027 121.874 53.7859C121.963 53.8671 122.046 53.9445 122.123 54.0177C122.113 54.0277 122.096 54.046 122.071 54.0722C122.049 54.0988 122.033 54.1171 122.023 54.1271C122.007 54.1412 121.986 54.1629 121.959 54.1912C121.933 54.2215 121.912 54.2448 121.895 54.2611L121.403 53.798ZM122.385 49.6204H123.519V52.4724C123.531 52.7325 123.586 52.963 123.683 53.1643C123.724 53.2517 123.775 53.337 123.838 53.4202C123.903 53.5013 123.981 53.5746 124.073 53.6395C124.166 53.7048 124.275 53.7576 124.401 53.798C124.527 53.8367 124.672 53.8558 124.836 53.8558C125 53.8558 125.145 53.8367 125.271 53.798C125.396 53.7576 125.506 53.7048 125.599 53.6395C125.692 53.5746 125.77 53.5013 125.833 53.4202C125.898 53.337 125.951 53.2517 125.991 53.1643C126.088 52.963 126.143 52.7325 126.155 52.4724V52.0248H126.484V52.4724C126.484 52.4745 126.482 52.5011 126.481 52.5519C126.479 52.6006 126.47 52.6655 126.456 52.7466C126.444 52.8261 126.424 52.9164 126.396 53.0179C126.369 53.1194 126.33 53.223 126.277 53.3287C126.226 53.4323 126.162 53.5351 126.082 53.6366C126.003 53.736 125.905 53.8255 125.788 53.9049C125.672 53.984 125.536 54.0468 125.38 54.0938C125.224 54.1425 125.042 54.1666 124.836 54.1666C124.629 54.1666 124.447 54.1425 124.291 54.0938C124.135 54.0447 123.999 53.9811 123.884 53.9016C123.768 53.8225 123.67 53.7323 123.589 53.6303C123.51 53.5288 123.445 53.4252 123.395 53.3195C123.273 53.072 123.204 52.7895 123.187 52.4724V49.9095H122.385V49.6204ZM132.224 53.6823H129.455V54.0905H129.126V53.6823H128.713V53.3898H129.126V51.0158C129.13 50.7945 129.173 50.5944 129.257 50.4154C129.34 50.237 129.45 50.0843 129.588 49.9586C129.728 49.8305 129.89 49.7319 130.075 49.6628C130.259 49.5937 130.455 49.5592 130.661 49.5592C130.879 49.5592 131.079 49.5958 131.264 49.669C131.448 49.7423 131.608 49.8438 131.744 49.9736C131.88 50.1017 131.985 50.2553 132.06 50.4338C132.137 50.6127 132.176 50.8065 132.176 51.0158C132.176 51.2455 132.136 51.4498 132.057 51.6283C131.978 51.8072 131.87 51.9594 131.732 52.0855C131.596 52.2095 131.436 52.3039 131.251 52.3688C131.067 52.4337 130.87 52.4666 130.661 52.4666C130.564 52.4666 130.46 52.4583 130.348 52.4421C130.239 52.4238 130.13 52.3934 130.023 52.3505C129.916 52.306 129.812 52.2469 129.713 52.1737C129.614 52.1009 129.527 52.0073 129.455 51.8937V53.3898H132.224V53.6823ZM131.845 51.0158C131.845 50.8411 131.813 50.6817 131.75 50.5374C131.689 50.3934 131.605 50.2702 131.498 50.1687C131.392 50.0651 131.268 49.9861 131.124 49.9312C130.98 49.8742 130.826 49.8459 130.661 49.8459C130.487 49.8459 130.326 49.875 130.178 49.9341C130.032 49.9931 129.905 50.0751 129.798 50.1808C129.691 50.2844 129.606 50.4084 129.545 50.5527C129.485 50.695 129.455 50.8494 129.455 51.0158C129.455 51.1926 129.487 51.3532 129.552 51.4972C129.616 51.6395 129.704 51.7614 129.813 51.8629C129.923 51.9628 130.05 52.0397 130.196 52.0947C130.342 52.1496 130.497 52.177 130.661 52.177C130.836 52.177 130.995 52.1483 131.139 52.0917C131.285 52.0327 131.41 51.9515 131.513 51.8479C131.618 51.7443 131.699 51.6224 131.756 51.4822C131.815 51.3399 131.845 51.1843 131.845 51.0158ZM136.403 54.0876H136.068V51.2808C136.056 51.0129 136.001 50.7733 135.904 50.5619C135.863 50.4724 135.811 50.3851 135.749 50.2998C135.686 50.2124 135.608 50.135 135.515 50.068C135.423 49.999 135.315 49.9445 135.189 49.9037C135.065 49.8608 134.922 49.8396 134.757 49.8396C134.591 49.8396 134.445 49.8608 134.319 49.9037C134.194 49.9445 134.084 49.999 133.991 50.068C133.898 50.135 133.819 50.2124 133.754 50.2998C133.691 50.3851 133.639 50.4724 133.599 50.5619C133.501 50.7733 133.447 51.0129 133.435 51.2808V54.0876H133.106V51.2808C133.12 50.958 133.188 50.6684 133.31 50.4125C133.361 50.3027 133.425 50.1962 133.505 50.0926C133.586 49.989 133.684 49.8966 133.8 49.8151C133.917 49.7319 134.054 49.6661 134.21 49.617C134.368 49.5663 134.551 49.5409 134.757 49.5409C134.962 49.5409 135.143 49.5663 135.299 49.617C135.455 49.6661 135.591 49.7319 135.706 49.8151C135.822 49.8966 135.919 49.989 135.998 50.0926C136.077 50.1962 136.143 50.3027 136.195 50.4125C136.317 50.6684 136.386 50.958 136.403 51.2808V54.0876ZM137.424 54.0876V49.6204H137.756V53.798H139.99V54.0876H137.424ZM143.986 51.2201H141.018V52.5153C141.03 52.7628 141.085 52.9834 141.182 53.1764C141.223 53.2596 141.274 53.3412 141.337 53.4202C141.402 53.4976 141.481 53.5675 141.575 53.6303C141.67 53.6915 141.78 53.741 141.906 53.7797C142.032 53.8163 142.178 53.8346 142.344 53.8346C142.506 53.8346 142.649 53.8163 142.773 53.7797C142.896 53.741 143.003 53.6915 143.095 53.6303C143.186 53.5675 143.263 53.4976 143.326 53.4202C143.389 53.3412 143.441 53.2596 143.481 53.1764C143.578 52.9834 143.634 52.7628 143.648 52.5153V52.2773H143.977V52.5153C143.96 52.824 143.891 53.0994 143.77 53.3412C143.717 53.4448 143.651 53.5463 143.572 53.6457C143.493 53.7431 143.396 53.8317 143.28 53.9108C143.167 53.9881 143.032 54.0501 142.876 54.0967C142.722 54.1433 142.543 54.1666 142.341 54.1666C142.136 54.1666 141.955 54.1433 141.797 54.0967C141.641 54.0501 141.505 53.9881 141.389 53.9108C141.274 53.8317 141.175 53.7431 141.094 53.6457C141.015 53.5463 140.95 53.4448 140.899 53.3412C140.778 53.0994 140.708 52.824 140.69 52.5153V49.6204H141.018V50.9243H143.986V51.2201ZM145.126 51.9911C145.076 51.8775 145.036 51.7493 145.007 51.607C144.981 51.4627 144.968 51.3216 144.968 51.1835C144.968 51.1573 144.971 51.1136 144.977 51.0524C144.983 50.9896 144.994 50.9172 145.01 50.8361C145.029 50.7529 145.053 50.6634 145.083 50.5681C145.116 50.4704 145.159 50.3738 145.214 50.2786C145.269 50.1808 145.336 50.0876 145.415 49.9981C145.494 49.9087 145.589 49.8296 145.701 49.7606C145.814 49.6915 145.945 49.6366 146.093 49.5958C146.241 49.5534 146.41 49.5317 146.601 49.5317C146.808 49.5317 146.989 49.5563 147.145 49.605C147.303 49.6516 147.44 49.7136 147.556 49.7909C147.673 49.8679 147.772 49.9565 147.85 50.056C147.93 50.1533 147.995 50.254 148.048 50.3576C148.17 50.6014 148.239 50.8769 148.255 51.1835C148.255 51.3765 148.234 51.5646 148.191 51.7472C148.151 51.9299 148.094 52.1067 148.021 52.2773C147.948 52.4462 147.863 52.6064 147.765 52.7591C147.67 52.9114 147.568 53.0524 147.458 53.1826C147.351 53.3104 147.239 53.4265 147.124 53.5301C147.008 53.6337 146.895 53.721 146.783 53.7922H148.27V54.0876H144.971V53.3774H145.299V53.7797C145.476 53.7797 145.638 53.7755 145.786 53.7676C145.936 53.7576 146.078 53.7339 146.211 53.6973C146.345 53.6611 146.473 53.607 146.595 53.5359C146.716 53.4631 146.838 53.3632 146.959 53.2376C146.959 53.2272 146.959 53.2172 146.959 53.2068C146.962 53.1947 146.963 53.1835 146.963 53.1735C146.963 52.9418 146.929 52.7487 146.862 52.5943C146.795 52.4379 146.706 52.3131 146.595 52.2195C146.483 52.1263 146.355 52.0601 146.208 52.0214C146.063 51.9827 145.91 51.9636 145.753 51.9636C145.661 51.9636 145.568 51.9698 145.473 51.9819C145.379 51.9919 145.285 52.0065 145.19 52.0248L145.126 51.9911ZM147.926 51.1835C147.926 51.149 147.921 51.092 147.911 51.0129C147.903 50.9318 147.884 50.8411 147.854 50.7416C147.823 50.6422 147.779 50.5394 147.72 50.4338C147.661 50.3281 147.582 50.2315 147.483 50.1442C147.385 50.0568 147.264 49.9861 147.118 49.9312C146.974 49.8742 146.8 49.8459 146.598 49.8459C146.399 49.8459 146.23 49.8742 146.09 49.9312C145.95 49.9861 145.832 50.0568 145.734 50.1442C145.639 50.2299 145.563 50.3252 145.506 50.4308C145.45 50.5344 145.406 50.636 145.375 50.7354C145.345 50.8352 145.325 50.9255 145.315 51.0067C145.304 51.0882 145.298 51.1481 145.296 51.1864C145.296 51.3774 145.318 51.5442 145.36 51.6865C145.431 51.6761 145.504 51.6682 145.579 51.662C145.654 51.6557 145.728 51.6528 145.801 51.6528C145.986 51.6528 146.16 51.6773 146.324 51.726C146.488 51.7747 146.635 51.8508 146.765 51.9544C146.895 52.058 147.002 52.1912 147.087 52.3539C147.172 52.514 147.227 52.7071 147.251 52.9326C147.353 52.8028 147.445 52.6717 147.528 52.5394C147.611 52.4055 147.682 52.2673 147.741 52.125C147.8 51.9811 147.845 51.8317 147.878 51.6774C147.91 51.5226 147.926 51.3582 147.926 51.1835Z" fill="#04243D"/>
<path d="M44.5112 48.3723C36.0573 47.8599 28.3933 52.215 25.618 54.4566V36.8442C30.7416 28.9026 44.8315 27.3442 51.236 27.5577L44.5112 48.3723Z" fill="#04243D"/>
<path d="M6.72472 48.3723C15.1787 47.8599 22.8427 52.215 25.618 54.4566V36.8442C20.4944 28.9026 6.4045 27.3442 3.8147e-06 27.5577L6.72472 48.3723Z" fill="#04243D"/>
<path d="M47.3933 26.2584C47.9056 26.2584 48.4607 24.1236 48.6742 23.0562C36.3775 23.0562 27.2191 30.1011 25.618 34.5842C29.7169 27.9236 41.8427 26.2584 47.3933 26.2584Z" fill="#04243D"/>
<path d="M3.8427 26.2584C3.33034 26.2584 2.77529 24.1236 2.5618 23.0562C14.8584 23.0562 24.0169 30.1011 25.618 34.5842C21.5191 27.9236 9.39326 26.2584 3.8427 26.2584Z" fill="#04243D"/>
<path d="M37.4663 21.7753C32.0865 22.2876 27.3258 26.045 25.618 27.8596V19.5337L37.4663 14.7303V21.7753Z" fill="#04243D"/>
<path d="M13.7697 21.7753C19.1494 22.2876 23.9101 26.045 25.618 27.8596V19.5337L13.7697 14.7303V21.7753Z" fill="#04243D"/>
<path d="M46.4326 9.92695L25.618 18.2528L10.2472 12.1685C9.47866 11.9123 12.7023 9.92695 14.4101 8.96628C11.5921 9.22246 9.39327 10.7809 8.64608 11.5281L4.48315 9.60673L25.618 1.28088L46.4326 9.92695Z" fill="#04243D"/>
<path d="M7.36518 19.8539C7.93801 19.8539 8.64608 20.1741 8.9663 19.8539C9.28653 19.5337 8.9663 16.5449 8.64608 15.691C7.6854 16.9719 7.04495 19.8539 7.36518 19.8539Z" fill="#04243D"/>
<circle cx="8.64606" cy="15.691" r="0.640449" fill="#D9D9D9"/>
<path d="M10.5674 11.8483C9.79887 12.2041 8.64606 13.2715 8.64606 15.0506L9.4146 13.2715L10.5674 11.8483Z" fill="#04243D"/>
</svg>
