<svg width="90" height="90" viewBox="0 0 90 90" fill="none" xmlns="http://www.w3.org/2000/svg">
<mask id="mask0_533_207" style="mask-type:luminance" maskUnits="userSpaceOnUse" x="0" y="0" width="90" height="90">
<path d="M0 0H90V90H0V0Z" fill="white"/>
</mask>
<g mask="url(#mask0_533_207)">
<path d="M76.8197 13.1803C68.3203 4.68099 57.0204 0 45 0C32.9796 0 21.6797 4.68099 13.1803 13.1803C4.68099 21.6797 0 32.9807 0 45C0 57.0193 4.68099 68.3203 13.1803 76.8197C21.6797 85.319 32.9796 90 45 90C57.0204 90 68.3203 85.319 76.8197 76.8197C85.319 68.3203 90 57.0204 90 45C90 32.9796 85.319 21.6797 76.8197 13.1803Z" fill="#04243D"/>
</g>
<path d="M55.606 23.617C55.954 23.9756 56.2839 24.3496 56.5955 24.7413C56.9072 25.1319 57.1995 25.538 57.4715 25.9595C57.7446 26.3799 57.9974 26.8135 58.2287 27.2604C58.46 27.7061 58.6699 28.1629 58.8584 28.6308C59.0458 29.0986 59.2118 29.5742 59.3542 30.0585C59.4967 30.5429 59.6155 31.0339 59.7119 31.5305C59.8072 32.027 59.8801 32.5268 59.9272 33.03C59.9754 33.5342 60 34.0396 60 34.5449C60 35.0514 59.9754 35.5567 59.9272 36.0598C59.879 36.5641 59.8072 37.0639 59.7119 37.5605C59.6155 38.057 59.4967 38.5469 59.3542 39.0313C59.2118 39.5156 59.0458 39.9923 58.8584 40.459C58.6699 40.9269 58.46 41.3837 58.2287 41.8305C57.9974 42.2763 57.7446 42.7099 57.4715 43.1314C57.1995 43.5518 56.9072 43.9579 56.5955 44.3496C56.2839 44.7413 55.954 45.1153 55.606 45.4728C55.259 45.8314 54.8959 46.1702 54.5158 46.4912C54.1356 46.8134 53.7415 47.1135 53.3335 47.3949C52.9254 47.6763 52.5046 47.9367 52.0708 48.175C51.6371 48.4133 51.1937 48.6296 50.7397 48.8238C50.2867 49.0169 49.824 49.1879 49.3539 49.3347C48.8837 49.4814 48.4082 49.6039 47.9263 49.7032C47.4444 49.8014 46.9593 49.8753 46.4699 49.925C45.9815 49.9746 45.491 50 44.9995 50C44.509 50 44.0185 49.9746 43.5291 49.925C43.0407 49.8753 42.5556 49.8014 42.0737 49.7032C41.5918 49.6039 41.1152 49.4814 40.6451 49.3347C40.1749 49.1879 39.7133 49.0169 39.2593 48.8238C38.8052 48.6296 38.3618 48.4133 37.9292 48.175C37.4954 47.9367 37.0746 47.6763 36.6665 47.3949C36.2575 47.1135 35.8633 46.8134 35.4842 46.4912C35.1041 46.1702 34.741 45.8314 34.393 45.4728C34.046 45.1153 33.7161 44.7413 33.4045 44.3496C33.0928 43.9579 32.8005 43.5518 32.5274 43.1314C32.2543 42.7099 32.0026 42.2763 31.7713 41.8305C31.5389 41.3837 31.3301 40.9269 31.1416 40.459C30.9531 39.9923 30.7882 39.5156 30.6458 39.0313C30.5033 38.5469 30.3834 38.057 30.2881 37.5605C30.1917 37.0639 30.1199 36.5641 30.0718 36.0598C30.0236 35.5567 30 35.0514 30 34.5449C30 34.0396 30.0236 33.5342 30.0718 33.03C30.1199 32.5268 30.1917 32.027 30.2881 31.5305C30.3834 31.0339 30.5033 30.5429 30.6458 30.0585C30.7882 29.5742 30.9531 29.0986 31.1416 28.6308C31.3301 28.1629 31.5389 27.7061 31.7713 27.2604C32.0026 26.8135 32.2543 26.3799 32.5274 25.9595C32.8005 25.538 33.0928 25.1319 33.4045 24.7413C33.7161 24.3496 34.046 23.9756 34.393 23.617C34.741 23.2595 35.1041 22.9197 35.4842 22.5986C35.8633 22.2775 36.2575 21.9763 36.6665 21.6949C37.0746 21.4135 37.4954 21.1542 37.9292 20.9159C38.3618 20.6765 38.8052 20.4602 39.2593 20.2671C39.7133 20.0729 40.1749 19.903 40.6451 19.7563C41.1152 19.6095 41.5918 19.4859 42.0737 19.3877C42.5556 19.2884 43.0407 19.2145 43.5291 19.1648C44.0185 19.1152 44.509 19.0909 44.9995 19.0909C45.491 19.0909 45.9815 19.1152 46.4699 19.1648C46.9593 19.2145 47.4444 19.2884 47.9263 19.3877C48.4082 19.4859 48.8837 19.6095 49.3539 19.7563C49.824 19.903 50.2867 20.0729 50.7397 20.2671C51.1937 20.4602 51.6371 20.6765 52.0708 20.9159C52.5046 21.1542 52.9254 21.4135 53.3335 21.6949C53.7415 21.9763 54.1356 22.2775 54.5158 22.5986C54.8959 22.9197 55.259 23.2595 55.606 23.617Z" fill="#ECEDED"/>
<path d="M45.4453 56.3636H44.5558C31.9719 56.3636 21.3748 64.6161 18.1818 75.8551C25.4133 81.8378 34.7789 85.4545 45 85.4545C55.2211 85.4545 64.5867 81.8378 71.8182 75.8551C68.6252 64.6172 58.0292 56.3636 45.4442 56.3636H45.4453Z" fill="#ECEDED"/>
</svg>
